<svg width="125" height="38" viewBox="0 0 125 38" fill="none" xmlns="http://www.w3.org/2000/svg">
<g clip-path="url(#clip0_3346_8973)">
<path fill-rule="evenodd" clip-rule="evenodd" d="M16.3589 1.63151C16.2415 0.940066 17.2183 0.660583 17.4868 1.30885L18.0102 2.57288C18.0264 2.61221 18.0389 2.65204 18.0477 2.692C19.303 2.3904 20.5675 2.23851 21.8198 2.22675C21.8184 2.1856 21.8208 2.14368 21.827 2.10133L22.0267 0.751827C22.1293 0.0580341 23.1451 0.0930559 23.1993 0.79226L23.3049 2.15229C23.3082 2.19513 23.3077 2.23726 23.3036 2.27836C24.577 2.37905 25.8283 2.62373 27.0343 3.00197C27.0459 2.96245 27.0611 2.92331 27.0802 2.88495L27.6898 1.66061C28.0025 1.03239 28.9577 1.37848 28.7924 2.06019L28.4705 3.38878C28.4605 3.43039 28.4469 3.47012 28.4304 3.50782C29.6022 3.99127 30.7189 4.60533 31.7569 5.33945C31.7796 5.30663 31.8055 5.27523 31.8345 5.24562L32.7938 4.26889C33.2861 3.76773 34.0873 4.39102 33.7188 4.9885L33.0007 6.15288C32.9793 6.18747 32.9555 6.2195 32.9297 6.24893C33.9843 7.14383 34.9357 8.17489 35.7537 9.3287C35.7516 9.21756 35.751 9.1072 35.7504 8.99872V8.99819L35.7503 8.97897C35.7478 8.42567 36.2499 8.00036 36.8188 7.92107C37.0906 7.88513 37.3669 7.9401 37.604 8.07737C37.8413 8.21464 38.0261 8.42647 38.1296 8.67965C38.4534 9.50055 38.5081 10.4025 38.2858 11.2563C38.2676 11.3332 38.2463 11.41 38.2222 11.4971L38.222 11.4972L38.2219 11.4976L38.2218 11.4983L38.2203 11.5037C38.2116 11.535 38.2026 11.5677 38.1932 11.6022C39.0247 12.0693 39.6767 12.7988 40.0466 13.6758C40.3437 14.382 40.0619 15.1033 39.407 15.3898C39.0696 15.5342 38.7392 15.4962 38.4367 15.3384C38.7042 16.5122 38.8401 17.6929 38.8522 18.863C38.8874 18.8628 38.9231 18.8653 38.959 18.8706L40.3131 19.0696C41.0093 19.1718 40.9741 20.1841 40.2725 20.2382L38.9079 20.3434C38.872 20.3462 38.8365 20.3463 38.8019 20.3438C38.7018 21.6146 38.4569 22.8634 38.0776 24.067C38.1097 24.0775 38.1414 24.0904 38.1727 24.1058L39.4012 24.7132C40.0315 25.025 39.6842 25.9768 39.0002 25.8122L37.6672 25.4914C37.6336 25.4833 37.6012 25.473 37.57 25.4606C37.0847 26.6303 36.468 27.7451 35.7303 28.7811C35.7559 28.8001 35.7804 28.821 35.8039 28.8439L36.7838 29.7999C37.2868 30.2903 36.6613 31.0887 36.0618 30.7215L34.8935 30.006C34.8664 29.9892 34.8406 29.9711 34.8167 29.9515C33.9991 30.9084 33.0684 31.7799 32.0347 32.5435C32.0523 32.5685 32.0685 32.5951 32.0832 32.623L32.7175 33.8315C33.0436 34.4529 32.2012 35.0196 31.745 34.4857L30.8576 33.4474C30.8368 33.4233 30.8183 33.3982 30.8014 33.3724C29.928 33.9049 28.9932 34.3654 28.0021 34.7428C27.7852 34.8254 27.5678 34.9033 27.3497 34.9764C27.3586 35.0052 27.3656 35.035 27.3708 35.0655L27.5999 36.4135C27.7174 37.1049 26.7406 37.3844 26.4721 36.7362L25.9488 35.4722C25.9371 35.4442 25.9274 35.4159 25.9196 35.3875C24.6616 35.6901 23.3942 35.8425 22.1394 35.8541C22.1388 35.8838 22.1362 35.9137 22.1318 35.944L21.9322 37.2931C21.8296 37.987 20.8138 37.9519 20.7596 37.2527L20.6539 35.893C20.6516 35.8622 20.6512 35.8318 20.6527 35.8019C19.3766 35.7007 18.1226 35.4547 16.9144 35.0746C16.9045 35.1035 16.8925 35.1321 16.8785 35.1604L16.2691 36.3844C15.9564 37.0126 15.0012 36.6665 15.1663 35.9848L15.4882 34.6565C15.4958 34.6255 15.5052 34.5955 15.5163 34.5666C14.343 34.0812 13.2249 33.4646 12.186 32.7277C12.1673 32.7526 12.1467 32.7767 12.1242 32.7996L11.165 33.7761C10.6727 34.2773 9.87167 33.654 10.2401 33.0565L10.9581 31.8923C10.9749 31.865 10.9933 31.8394 11.0129 31.8154C10.0543 30.9995 9.18145 30.0708 8.41692 29.0397C8.39032 29.0586 8.36204 29.076 8.33212 29.0915L7.11945 29.7236C6.49589 30.0487 5.9273 29.2093 6.46301 28.7544L7.50481 27.8701C7.53122 27.8477 7.55874 27.8275 7.58715 27.8098C7.16868 27.1258 6.79481 26.4043 6.47085 25.6476L4.17091 28.6861C3.86603 29.089 3.27147 29.1319 2.95306 28.7397C0.77348 26.0546 0.504116 22.5036 0.717763 20.334C0.769134 19.8124 1.31718 19.5247 1.80179 19.7284L5.24627 21.1766C5.16008 20.5104 5.11496 19.8444 5.10945 19.182C5.07337 19.1822 5.03676 19.1799 4.99979 19.1743L3.64581 18.9755C2.94962 18.8731 2.98476 17.8608 3.68638 17.8068L5.05092 17.7015C5.08894 17.6987 5.12638 17.6988 5.16305 17.7017C5.2657 16.4318 5.51299 15.1843 5.89445 13.9822C5.85789 13.971 5.8217 13.9568 5.78617 13.9391L4.55771 13.3318C3.92733 13.0201 4.27461 12.0682 4.95867 12.2328L6.29174 12.5536C6.33096 12.5631 6.36854 12.5755 6.4043 12.5907C6.89119 11.4234 7.50912 10.3111 8.24752 9.27748C8.21519 9.25511 8.18425 9.2297 8.15504 9.20121L7.17499 8.24518C6.6721 7.75462 7.29755 6.95631 7.89707 7.32351L9.06542 8.03912C9.10018 8.06042 9.13237 8.08414 9.16193 8.10993C9.97937 7.15608 10.9096 6.28736 11.9424 5.52626C11.9177 5.49419 11.8954 5.45948 11.8758 5.42224L11.2414 4.21354C10.9153 3.59212 11.7576 3.0255 12.214 3.55936L13.1015 4.59774C13.1293 4.63028 13.1536 4.66451 13.1744 4.70001C14.0439 4.17103 14.9741 3.71339 15.9599 3.33795C16.1793 3.25438 16.3995 3.17568 16.6201 3.10181C16.6061 3.06294 16.5953 3.02223 16.5881 2.97988L16.3589 1.63151ZM8.41157 24.2078C11.2754 31.6764 19.6722 35.4173 27.1665 32.5634C34.5902 29.7363 38.3435 21.4983 35.6297 14.0838C34.7296 14.8372 33.6496 15.5198 32.3937 15.9786C29.5753 17.008 27.4235 17.4565 25.6074 17.6338C23.5426 20.4636 20.0318 21.6442 18.3332 21.8872L18.5498 17.6498C17.4437 17.6956 16.2553 17.8408 14.8656 18.1966C12.2553 18.8648 9.82395 19.9548 7.61716 21.2204C7.77124 22.222 8.03386 23.2227 8.41157 24.2078ZM12.1139 24.5724C11.4179 24.6958 10.7534 24.2337 10.6295 23.5401C10.5057 22.8465 10.9694 22.1843 11.6654 22.0609C12.3613 21.9374 13.0259 22.3996 13.1497 23.0932C13.2735 23.7867 12.8098 24.449 12.1139 24.5724ZM18.0143 24.7268C17.5601 24.8074 17.1264 24.5058 17.0455 24.0531C16.9647 23.6004 17.2674 23.1682 17.7216 23.0877C18.1758 23.0071 18.6095 23.3087 18.6904 23.7614C18.7712 24.2141 18.4685 24.6464 18.0143 24.7268ZM25.5071 24.4347C25.0528 24.5153 24.6191 24.2137 24.5383 23.761C24.4574 23.3083 24.7601 22.8761 25.2144 22.7956C25.6686 22.715 26.1022 23.0166 26.1831 23.4693C26.264 23.922 25.9612 24.3543 25.5071 24.4347ZM27.0672 28.4225C27.1481 28.8752 27.5819 29.1768 28.036 29.0962C28.4903 29.0158 28.7929 28.5835 28.7122 28.1308C28.6313 27.6781 28.1975 27.3765 27.7434 27.4571C27.2892 27.5376 26.9865 27.9698 27.0672 28.4225ZM18.3111 30.4547C17.8569 30.5351 17.4231 30.2335 17.3424 29.7808C17.2615 29.3283 17.5642 28.896 18.0184 28.8154C18.4726 28.7349 18.9063 29.0365 18.9872 29.4892C19.068 29.9418 18.7653 30.3741 18.3111 30.4547ZM13.8029 26.9361C13.8837 27.3888 14.3175 27.6904 14.7717 27.6098C15.2259 27.5293 15.5285 27.097 15.4478 26.6443C15.3669 26.1916 14.9333 25.89 14.479 25.9706C14.0248 26.0511 13.7221 26.4834 13.8029 26.9361ZM21.9592 27.2043C21.5049 27.2849 21.0711 26.9831 20.9904 26.5306C20.9095 26.0779 21.2122 25.6456 21.6664 25.5651C22.1207 25.4845 22.5543 25.7861 22.6352 26.2388C22.7161 26.6915 22.4133 27.1237 21.9592 27.2043ZM29.0899 23.7989C29.2138 24.4925 29.8784 24.9547 30.5742 24.8313C31.2701 24.7079 31.7339 24.0456 31.6101 23.352C31.4862 22.6585 30.8216 22.1963 30.1258 22.3197C29.4298 22.4431 28.9661 23.1055 29.0899 23.7989ZM21.9255 30.2641C22.0493 30.9575 22.7139 31.4197 23.4099 31.2963C24.1058 31.1729 24.5696 30.5106 24.4458 29.8171C24.3219 29.1235 23.6573 28.6613 22.9615 28.7847C22.2655 28.9081 21.8017 29.5705 21.9255 30.2641ZM31.7118 10.6927C31.968 11.8142 31.3036 12.9212 30.2281 13.1652C29.1525 13.4091 28.0729 12.6977 27.8167 11.5761C27.5607 10.4546 28.2249 9.34756 29.3005 9.1036C30.3761 8.85964 31.4556 9.57108 31.7118 10.6927Z" fill="black"/>
<path d="M30.3091 12.1898C30.7937 12.0799 31.0831 11.5392 30.9559 10.9821C30.8287 10.4251 30.3329 10.0625 29.8485 10.1724C29.364 10.2823 29.0745 10.823 29.2017 11.38C29.3289 11.9371 29.8248 12.2996 30.3091 12.1898Z" fill="black"/>
<path fill-rule="evenodd" clip-rule="evenodd" d="M90.9284 11.5007C90.9284 7.36099 94.2968 4.0051 98.452 4.0051V7.6664C96.3265 7.66642 94.6033 9.38308 94.6033 11.5007V11.5009H98.4519V15.1622H94.6033V26.4919H90.9284V11.5007ZM89.2763 4.11386C85.1212 4.11386 81.7526 7.46962 81.7525 11.6092L81.7524 26.6004H85.4274V11.6094C85.4274 9.49184 87.1507 7.77518 89.2762 7.77518L89.2763 4.11386ZM55.8764 22.939C58.0019 22.939 59.7251 21.2224 59.7251 19.1048C59.7251 16.9872 58.0019 15.2704 55.8764 15.2704C53.7508 15.2704 52.0278 16.9872 52.0278 19.1048C52.0278 21.2224 53.7508 22.939 55.8764 22.939ZM55.8764 26.6003C54.47 26.6003 53.1538 26.216 52.0278 25.5468V34.0423H48.3528V19.1048C48.3528 14.9651 51.7212 11.6092 55.8764 11.6092C60.0316 11.6092 63.4001 14.9651 63.4001 19.1048C63.4001 23.2444 60.0316 26.6003 55.8764 26.6003ZM80.0996 11.6092H76.4246V19.1047C76.4245 21.2222 74.7016 22.9388 72.576 22.9388C70.4505 22.9388 68.7275 21.2222 68.7275 19.1047V19.1044V11.6092H65.0524V19.1044V19.1046C65.0524 23.2442 68.4209 26.6001 72.576 26.6001C76.7312 26.6001 80.0996 23.2442 80.0996 19.1046V19.1044V11.6092ZM85.4274 11.6094L85.4276 15.2707H89.2762V11.6094L85.4274 11.6094ZM113.48 14.2848C114.17 15.1352 114.66 16.1194 114.924 17.1655L115.152 18.9305C115.152 18.9522 115.152 18.9741 115.152 18.996V18.9963C115.152 19.6277 115.074 20.241 114.926 20.8268H113.432V20.8271H104.246C104.898 22.0208 106.168 22.8309 107.628 22.8309C108.608 22.8309 109.502 22.4663 110.181 21.866L112.619 24.6057C111.331 25.7431 109.69 26.4061 107.971 26.4841C106.251 26.5622 104.557 26.0504 103.17 25.0344C101.784 24.0183 100.789 22.5593 100.352 20.9008C99.9144 19.2422 100.061 17.4846 100.767 15.9207C101.474 14.3569 102.697 13.0817 104.233 12.3077C105.768 11.5337 107.524 11.3078 109.207 11.6676C110.89 12.0274 112.398 12.9512 113.48 14.2848ZM104.246 17.1658C104.898 15.9721 106.168 15.1619 107.628 15.1619C109.089 15.1619 110.359 15.9721 111.011 17.1658H104.246ZM120.479 19.1042C120.479 16.9907 122.196 15.2766 124.315 15.2699V11.6087C120.166 11.6153 116.804 14.9687 116.804 19.1042V19.1043H120.479V19.1042ZM116.804 26.6001H120.479V19.1046H116.804V26.6001Z" fill="black"/>
</g>
<defs>
<clipPath id="clip0_3346_8973">
<rect width="123.828" height="37.6716" fill="white" transform="translate(0.58609 0.164217)"/>
</clipPath>
</defs>
</svg>
